<?xml version="1.0" encoding="UTF-8" standalone="no"?>
<!-- Created with Inkscape (http://www.inkscape.org/) -->

<svg
   xmlns:dc="http://purl.org/dc/elements/1.1/"
   xmlns:cc="http://creativecommons.org/ns#"
   xmlns:rdf="http://www.w3.org/1999/02/22-rdf-syntax-ns#"
   xmlns:svg="http://www.w3.org/2000/svg"
   xmlns="http://www.w3.org/2000/svg"
   xmlns:sodipodi="http://sodipodi.sourceforge.net/DTD/sodipodi-0.dtd"
   xmlns:inkscape="http://www.inkscape.org/namespaces/inkscape"
   width="190"
   height="33.779922"
   viewBox="0 0 190 33.779923"
   id="svg3576"
   version="1.1"
   inkscape:version="0.91 r13725"
   sodipodi:docname="IngeniaLogo.svg">
  <defs
     id="defs3578" />
  <sodipodi:namedview
     id="base"
     pagecolor="#ffffff"
     bordercolor="#666666"
     borderopacity="1.0"
     inkscape:pageopacity="0.0"
     inkscape:pageshadow="2"
     inkscape:zoom="1.4"
     inkscape:cx="94.174676"
     inkscape:cy="-128.99561"
     inkscape:document-units="px"
     inkscape:current-layer="layer1"
     showgrid="false"
     fit-margin-top="5"
     units="px"
     fit-margin-left="5"
     fit-margin-right="5"
     fit-margin-bottom="5"
     inkscape:window-width="2048"
     inkscape:window-height="1091"
     inkscape:window-x="-8"
     inkscape:window-y="-8"
     inkscape:window-maximized="1" />
  <metadata
     id="metadata3581">
    <rdf:RDF>
      <cc:Work
         rdf:about="">
        <dc:format>image/svg+xml</dc:format>
        <dc:type
           rdf:resource="http://purl.org/dc/dcmitype/StillImage" />
        <dc:title></dc:title>
      </cc:Work>
    </rdf:RDF>
  </metadata>
  <g
     inkscape:label="Capa 1"
     inkscape:groupmode="layer"
     id="layer1"
     transform="translate(-76.42857,-10.472243)">
    <path
       inkscape:connector-curvature="0"
       id="path35"
       d="m 181.9869,21.634048 3.26904,0 0,11.877957 -3.26904,0 z m 0,0"
       style="fill:#d3d7d7;fill-opacity:1;fill-rule:nonzero;stroke:none" />
    <path
       inkscape:connector-curvature="0"
       id="path37"
       d="m 188.70111,33.512005 0,-11.877957 3.12227,0 4.48859,6.108435 c 0.0854,0.125424 0.22683,0.376275 0.42431,0.752545 0.19748,0.373602 0.4163,0.821927 0.65381,1.342305 -0.064,-0.493686 -0.11208,-0.931342 -0.14144,-1.315618 -0.0294,-0.384282 -0.0454,-0.72319 -0.0454,-1.022077 l 0,-5.86559 3.10892,0 0,11.877957 -3.10892,0 -4.48592,-6.13245 c -0.0934,-0.125429 -0.23751,-0.376275 -0.43498,-0.752551 -0.19749,-0.376275 -0.41097,-0.816592 -0.64581,-1.326291 0.0667,0.499025 0.11209,0.939348 0.14411,1.323624 0.0293,0.384282 0.0427,0.723191 0.0427,1.022072 l 0,5.865596 z m 0,0"
       style="fill:#d3d7d7;fill-opacity:1;fill-rule:nonzero;stroke:none" />
    <path
       inkscape:connector-curvature="0"
       id="path39"
       d="m 209.33742,29.138163 0,-2.489811 6.36196,0 c 0.005,0.08006 0.0106,0.170791 0.0133,0.266865 0.003,0.09874 0.003,0.24284 0.003,0.429644 0,2.044148 -0.53906,3.631965 -1.61717,4.760791 -1.08079,1.126147 -2.59922,1.691893 -4.55798,1.691893 -0.96337,0 -1.81732,-0.146776 -2.5672,-0.434984 -0.74987,-0.288212 -1.41969,-0.731197 -2.00945,-1.326297 -0.56308,-0.568413 -0.99806,-1.240896 -1.31028,-2.017461 -0.30957,-0.776565 -0.46701,-1.587823 -0.46701,-2.436437 0,-0.888647 0.15211,-1.702572 0.45633,-2.44711 0.30155,-0.744538 0.75254,-1.41436 1.35298,-2.00946 0.5951,-0.57642 1.27826,-1.016737 2.04949,-1.312951 0.77122,-0.298886 1.60383,-0.448324 2.49514,-0.448324 1.16351,0 2.19359,0.232166 3.08758,0.691169 0.89665,0.458993 1.64919,1.144828 2.2603,2.05215 l -2.80737,1.34765 c -0.33624,-0.458998 -0.71251,-0.800579 -1.13148,-1.027417 -0.41898,-0.224159 -0.88865,-0.336241 -1.40903,-0.336241 -0.9687,0 -1.72926,0.322901 -2.28699,0.968708 -0.55774,0.648463 -0.83528,1.531771 -0.83528,2.649917 0,1.131486 0.27754,2.020133 0.83528,2.668602 0.55773,0.651147 1.31829,0.974043 2.28699,0.974043 0.82192,0 1.50777,-0.200145 2.05749,-0.603102 0.54974,-0.402957 0.86997,-0.939348 0.96069,-1.611837 z m 0,0"
       style="fill:#d3d7d7;fill-opacity:1;fill-rule:nonzero;stroke:none" />
    <path
       inkscape:connector-curvature="0"
       id="path41"
       d="m 218.52543,33.512005 0,-11.877957 7.27995,0 0,2.604554 -4.12299,0 0,2.060167 3.88816,0 0,2.548514 -3.88816,0 0,2.004126 4.12299,0 0,2.660596 z m 0,0"
       style="fill:#d3d7d7;fill-opacity:1;fill-rule:nonzero;stroke:none" />
    <path
       inkscape:connector-curvature="0"
       id="path43"
       d="m 228.77821,33.512005 0,-11.877957 3.12493,0 4.48592,6.108435 c 0.0854,0.125424 0.2295,0.376275 0.42698,0.752545 0.19748,0.373602 0.41364,0.821927 0.65114,1.342305 -0.064,-0.493686 -0.11208,-0.931342 -0.14144,-1.315618 -0.0293,-0.384282 -0.0427,-0.72319 -0.0427,-1.022077 l 0,-5.86559 3.10626,0 0,11.877957 -3.10626,0 -4.48859,-6.13245 c -0.0907,-0.125429 -0.23751,-0.376275 -0.43499,-0.752551 -0.19747,-0.376275 -0.41096,-0.816592 -0.64313,-1.326291 0.064,0.499025 0.11209,0.939348 0.14143,1.323624 0.0294,0.384282 0.0454,0.723191 0.0454,1.022072 l 0,5.865596 z m 0,0"
       style="fill:#d3d7d7;fill-opacity:1;fill-rule:nonzero;stroke:none" />
    <path
       inkscape:connector-curvature="0"
       id="path45"
       d="m 243.84781,21.634048 3.27171,0 0,11.877957 -3.27171,0 z m 0,0"
       style="fill:#d3d7d7;fill-opacity:1;fill-rule:nonzero;stroke:none" />
    <path
       inkscape:connector-curvature="0"
       id="path47"
       d="m 253.70297,29.07412 3.221,0 -1.20887,-3.920189 c -0.0374,-0.117411 -0.0881,-0.309555 -0.15479,-0.576414 -0.064,-0.264188 -0.14677,-0.605769 -0.25084,-1.022077 -0.0694,0.293552 -0.13878,0.571086 -0.20549,0.835278 -0.0694,0.266854 -0.13877,0.520379 -0.20815,0.763213 z m -4.53663,4.437885 4.09897,-11.877957 4.05628,0 4.10698,11.877957 -3.221,0 -0.60044,-2.126877 -4.60067,0 -0.61912,2.126877 z m 0,0"
       style="fill:#d3d7d7;fill-opacity:1;fill-rule:nonzero;stroke:none" />
    <path
       inkscape:connector-curvature="0"
       id="path75"
       d="M 158.15627,30.798029 145.27492,15.472243 c -5.99635,4.211053 -13.2763,6.519399 -19.37407,7.786988 2.57254,2.631242 5.46263,4.944923 8.60892,6.890329 -2.89276,-0.963363 -5.84958,-2.10819 -8.91314,-3.295718 -1.6065,-0.62446 -3.23434,-1.254248 -4.88888,-1.876036 -1.61984,-0.603101 -3.21033,-1.222216 -4.78214,-1.82799 -11.65379,-4.512611 -22.707145,-8.785039 -34.49704,-4.800818 l 0,5.57471 c 10.623709,-4.411203 20.83112,-0.467004 32.61034,4.093642 1.59049,0.616442 3.20233,1.238229 4.83818,1.85201 1.63585,0.611108 3.24502,1.235562 4.83284,1.852015 8.23531,3.194316 16.1664,6.271209 24.43908,6.271209 3.29039,0 6.63682,-0.496359 10.07664,-1.657199 l 0,-5.564037 c -0.024,0.008 -0.0454,0.01596 -0.0694,0.02672"
       style="fill:#35fac2;fill-opacity:1;fill-rule:nonzero;stroke:none" />
    <path
       inkscape:connector-curvature="0"
       id="path77"
       d="M 114.03891,28.01735 C 102.2757,23.46471 92.081633,19.523185 81.473937,23.9077 l 12.900029,15.344466 c 8.368744,-5.878936 19.245974,-8.051169 25.898804,-8.854421 -0.46434,-0.17613 -0.92601,-0.35226 -1.39568,-0.531058 -1.63585,-0.611108 -3.24769,-1.232895 -4.83818,-1.849337"
       style="fill:#617375;fill-opacity:1;fill-rule:nonzero;stroke:none" />
  </g>
</svg>
